<svg width="17" height="16" viewBox="0 0 17 16" fill="none" xmlns="http://www.w3.org/2000/svg">
<g filter="url(#filter0_i_14_7439)">
<path d="M8.52713 0.926596C9.56324 0.926596 10.5454 1.08309 11.4736 1.39608C12.4017 1.70907 13.2112 2.16777 13.9019 2.77216C14.6035 3.36577 15.1539 4.09428 15.5532 4.9577C15.9634 5.82113 16.1684 6.79787 16.1684 7.88795C16.1684 8.52472 16.0767 9.08595 15.8932 9.57162C15.7097 10.0573 15.4615 10.4674 15.1485 10.802C14.8355 11.1258 14.474 11.374 14.0638 11.5467C13.6645 11.7086 13.2382 11.7895 12.7849 11.7895C12.2776 11.7895 11.8297 11.7032 11.4412 11.5305C11.0526 11.347 10.745 11.0826 10.5184 10.7372C10.2054 11.0718 9.83845 11.3308 9.41753 11.5143C9.00741 11.6978 8.55951 11.7895 8.07383 11.7895C7.54499 11.7895 7.05391 11.6978 6.60062 11.5143C6.15811 11.3308 5.77497 11.0772 5.45118 10.7534C5.1274 10.4296 4.87377 10.0411 4.69029 9.58781C4.51761 9.13451 4.43127 8.63805 4.43127 8.09841C4.43127 7.55877 4.51761 7.06769 4.69029 6.62519C4.87377 6.17189 5.1274 5.78335 5.45118 5.45957C5.77497 5.13578 6.15811 4.88215 6.60062 4.69868C7.05391 4.5152 7.54499 4.42346 8.07383 4.42346C8.53792 4.42346 8.96424 4.50441 9.35278 4.6663C9.75211 4.82819 10.1029 5.05484 10.4051 5.34624L10.6641 4.92533H11.9269V8.60027C11.9269 8.92405 12.0132 9.17769 12.1859 9.36116C12.3586 9.53385 12.5744 9.62019 12.8335 9.62019C13.1357 9.62019 13.4001 9.47988 13.6267 9.19927C13.8534 8.91866 13.9667 8.48155 13.9667 7.88795C13.9667 7.18642 13.8318 6.53885 13.562 5.94524C13.3029 5.35164 12.936 4.83898 12.4611 4.40727C11.997 3.97556 11.4358 3.64098 10.7774 3.40354C10.1191 3.1661 9.39055 3.04738 8.59189 3.04738C7.78243 3.04738 7.03772 3.17689 6.35778 3.43592C5.67783 3.68415 5.08963 4.02952 4.59316 4.47203C4.10748 4.91453 3.72434 5.44338 3.44373 6.05857C3.16311 6.67376 3.02281 7.34831 3.02281 8.08222C3.02281 8.79454 3.14692 9.4529 3.39516 10.0573C3.65418 10.6509 4.00495 11.1636 4.44745 11.5953C4.90075 12.0162 5.44039 12.3454 6.06637 12.5828C6.69236 12.831 7.3777 12.9552 8.1224 12.9552C8.5649 12.9552 8.99122 12.9174 9.40135 12.8418C9.81147 12.7663 10.2216 12.6422 10.6317 12.4695V14.5579C9.64958 14.9141 8.70521 15.0921 7.79862 15.0921C6.79489 15.0921 5.86131 14.9141 4.99789 14.5579C4.14526 14.2125 3.40595 13.7268 2.77997 13.1009C2.16478 12.4857 1.6791 11.7518 1.32294 10.8991C0.96678 10.0357 0.788699 9.09674 0.788699 8.08222C0.788699 6.94897 0.993762 5.93985 1.40389 5.05484C1.82481 4.16983 2.39143 3.42513 3.10375 2.82073C3.81608 2.20554 4.63633 1.73606 5.56451 1.41227C6.50348 1.08849 7.49102 0.926596 8.52713 0.926596ZM8.31667 9.52305C8.7268 9.52305 9.06677 9.38814 9.33659 9.11832C9.6172 8.8485 9.75751 8.50314 9.75751 8.08222C9.75751 7.67209 9.6172 7.33212 9.33659 7.0623C9.06677 6.79248 8.7268 6.65757 8.31667 6.65757C7.90654 6.65757 7.56657 6.79248 7.29675 7.0623C7.02693 7.33212 6.89202 7.67209 6.89202 8.08222C6.89202 8.50314 7.02693 8.8485 7.29675 9.11832C7.56657 9.38814 7.90654 9.52305 8.31667 9.52305Z" fill="white"/>
</g>
<defs>
<filter id="filter0_i_14_7439" x="0.789062" y="0.926758" width="15.6484" height="14.435" filterUnits="userSpaceOnUse" color-interpolation-filters="sRGB">
<feFlood flood-opacity="0" result="BackgroundImageFix"/>
<feBlend mode="normal" in="SourceGraphic" in2="BackgroundImageFix" result="shape"/>
<feColorMatrix in="SourceAlpha" type="matrix" values="0 0 0 0 0 0 0 0 0 0 0 0 0 0 0 0 0 0 127 0" result="hardAlpha"/>
<feOffset dx="0.269523" dy="0.269523"/>
<feGaussianBlur stdDeviation="0.269523"/>
<feComposite in2="hardAlpha" operator="arithmetic" k2="-1" k3="1"/>
<feColorMatrix type="matrix" values="0 0 0 0 0 0 0 0 0 0 0 0 0 0 0 0 0 0 0.15 0"/>
<feBlend mode="normal" in2="shape" result="effect1_innerShadow_14_7439"/>
</filter>
</defs>
</svg>
