<svg width="22" height="22" viewBox="0 0 22 22" fill="none" xmlns="http://www.w3.org/2000/svg">
<g clip-path="url(#clip0_14_7274)">
<mask id="mask0_14_7274" style="mask-type:luminance" maskUnits="userSpaceOnUse" x="0" y="0" width="22" height="22">
<path d="M0 0H22V22H0V0Z" fill="white"/>
</mask>
<g mask="url(#mask0_14_7274)">
<path fill-rule="evenodd" clip-rule="evenodd" d="M20.1667 9.75828H21.0834C21.4687 9.75828 21.8128 9.51748 21.9447 9.15551C22.0766 8.79357 21.9681 8.38778 21.6732 8.13992L12.7508 0.640657C11.7345 -0.213552 10.2656 -0.213553 9.2493 0.640657L0.326915 8.13992C0.0320168 8.38778 -0.0764475 8.79357 0.0554564 9.15551C0.18736 9.51748 0.531485 9.75828 0.916709 9.75828H1.83338V19.2C1.83338 20.723 3.0415 22 4.58338 22H17.4167C18.9586 22 20.1667 20.723 20.1667 19.2V9.75828ZM13.75 15.5833V20.1667H8.25004V15.5833C8.25004 14.0645 9.48122 12.8333 11 12.8333C12.5189 12.8333 13.75 14.0645 13.75 15.5833Z" fill="#171811"/>
</g>
</g>
<defs>
<clipPath id="clip0_14_7274">
<rect width="22" height="22" fill="white"/>
</clipPath>
</defs>
</svg>
