<svg width="16" height="16" viewBox="0 0 16 16" fill="none" xmlns="http://www.w3.org/2000/svg">
<path d="M2.84375 12.5625C1.98219 12.5625 1.28125 11.8616 1.28125 11C1.28125 10.1384 1.98219 9.4375 2.84375 9.4375C3.70531 9.4375 4.40625 10.1384 4.40625 11C4.40625 11.8616 3.70531 12.5625 2.84375 12.5625Z" fill="#42433D"/>
<path d="M4.54797 12.8267C4.10106 13.2438 3.50191 13.4999 2.84375 13.4999C2.18559 13.4999 1.58644 13.2438 1.13953 12.8267C0.466406 13.341 0.03125 14.1518 0.03125 15.0624V15.5312C0.03125 15.79 0.241125 15.9999 0.5 15.9999H5.1875C5.44637 15.9999 5.65625 15.79 5.65625 15.5312V15.0624C5.65625 14.1518 5.22109 13.341 4.54797 12.8267Z" fill="#42433D"/>
<path d="M8.46875 8.4375H9.71875V7.34375C9.71875 7.08487 9.92862 6.875 10.1875 6.875C10.4464 6.875 10.6562 7.08487 10.6562 7.34375V8.4375H11.9062V5.9375H8.46875V8.4375Z" fill="#42433D"/>
<path d="M4.92814 3.97412C4.74508 4.15719 4.4483 4.15719 4.26524 3.97412C4.17474 3.88363 4.02749 3.88363 3.93699 3.97412C3.84652 4.06459 3.84652 4.21184 3.93702 4.30231L4.59668 4.96197L5.25636 4.30231C5.34683 4.21184 5.34683 4.06459 5.25636 3.97409C5.16586 3.88366 5.01864 3.88366 4.92814 3.97412Z" fill="#42433D"/>
<path d="M8.2832 5.0002H12.0901L10.1867 3.28711L8.2832 5.0002Z" fill="#42433D"/>
<path d="M15.5025 6.75159C15.8075 6.27547 15.9688 5.72381 15.9688 5.15625C15.9688 3.98428 15.2739 2.92603 14.2165 2.45059C13.7295 0.996187 12.3627 0 10.8125 0C9.88962 0 9.00153 0.363 8.33831 0.99275C7.78103 0.369281 6.97756 0 6.125 0C5.20566 0 4.36237 0.415875 3.80662 1.11612C3.40019 0.802188 2.89641 0.625 2.375 0.625C1.08266 0.625 0.03125 1.67641 0.03125 2.96875C0.03125 3.74456 0.416563 4.46153 1.04072 4.89431C0.992875 5.08153 0.96875 5.27356 0.96875 5.46875C0.96875 6.76109 2.02016 7.8125 3.3125 7.8125C3.41659 7.8125 3.52041 7.80541 3.62359 7.79131C3.92666 8.54234 4.66116 9.0625 5.5 9.0625C5.58125 9.0625 5.66206 9.05759 5.74219 9.04778C6.09453 10.6719 7.53928 11.875 9.25 11.875C9.72287 11.875 10.1801 11.7844 10.6133 11.6052C11.1226 11.9826 11.7374 12.1875 12.375 12.1875C14.012 12.1875 15.3438 10.8557 15.3438 9.21875C15.3438 8.59688 15.1548 8.00759 14.803 7.51172C15.0775 7.30191 15.3145 7.04509 15.5025 6.75159ZM5.91919 4.96534L4.92803 5.95647C4.74497 6.13953 4.44819 6.13953 4.26512 5.95647L3.274 4.96534C2.818 4.50934 2.818 3.76734 3.27397 3.31131C3.63103 2.95428 4.16341 2.87681 4.59656 3.07884C5.02969 2.87681 5.56209 2.95428 5.91913 3.31131C6.37516 3.76731 6.37516 4.50931 5.91919 4.96534ZM13.3125 5.9375H12.8438V8.90625C12.8438 9.16512 12.6339 9.375 12.375 9.375H8C7.74113 9.375 7.53125 9.16512 7.53125 8.90625V5.9375H7.0625C6.63291 5.9375 6.42959 5.40772 6.74894 5.12034L9.87394 2.30784C10.0522 2.14741 10.3228 2.14741 10.5011 2.30784L13.6261 5.12034C13.9454 5.40772 13.7421 5.9375 13.3125 5.9375Z" fill="#42433D"/>
</svg>
