<svg width="68" height="35" viewBox="0 0 68 35" fill="none" xmlns="http://www.w3.org/2000/svg">
<g clip-path="url(#clip0_14_11434)">
<path fill-rule="evenodd" clip-rule="evenodd" d="M26.9512 16.4585C26.1239 17.8798 25.8292 19.7893 24.4705 20.7217C21.8563 22.4901 18.6254 23.5606 15.4766 23.8752C15.0333 23.9195 12.9953 24.0082 12.2422 23.8752C11.4891 23.7417 10.2485 23.3425 9.14104 23.3425C7.17481 23.3425 0.543229 23.6293 0.191615 26.0954C-0.41454 30.3427 4.97264 30.2254 8.25527 30.2254C11.5848 30.2254 14.9284 29.9589 18.1794 29.1154C21.3526 28.2919 23.1735 27.5265 25.1799 25.9619C25.5784 25.6517 26.863 24.2749 26.863 24.2749L26.9512 16.4585Z" fill="url(#paint0_linear_14_11434)"/>
<path fill-rule="evenodd" clip-rule="evenodd" d="M26.9517 16.0151C26.1252 17.4362 25.975 17.8521 24.616 18.7854C22.0024 20.5527 21.1101 21.017 17.9483 21.1359C15.3174 21.2351 12.1499 21.0494 8.77776 21.3319C5.97969 21.5664 0.811453 23.8026 0.223633 25.8353C1.8272 34.5145 23.9516 27.3207 26.7788 24.8267C27.1574 24.4921 26.7904 23.2843 26.7904 23.2843L26.9517 16.0151Z" fill="url(#paint1_linear_14_11434)"/>
<path fill-rule="evenodd" clip-rule="evenodd" d="M0.218613 25.8108C-0.302066 28.7649 0.0503561 31.507 1.89579 32.4124C4.21822 33.5521 4.61837 33.36 7.25681 33.5229C13.7401 33.5229 17.0907 33.1329 22.9845 30.1035C24.9564 29.0673 26.2636 27.7646 27.5042 26.0616L26.8625 24.2749C22.473 28.5954 1.36324 34.3048 0.218613 25.8108Z" fill="url(#paint2_linear_14_11434)"/>
<path fill-rule="evenodd" clip-rule="evenodd" d="M41.7702 23.6587C41.7702 23.6587 40.9343 25.8436 38.9723 26.3909C38.0779 26.639 34.5348 28.22 34.6837 29.4873C34.7169 29.7724 37.0493 29.6733 37.3 30.8714L37.5365 32.0005L33.048 32.037C30.648 29.6316 32.1801 27.6479 33.5205 24.9336L36.7915 23.076L37.918 21.9463L41.7702 23.6587Z" fill="url(#paint3_linear_14_11434)"/>
<path fill-rule="evenodd" clip-rule="evenodd" d="M57.0566 28.2659C57.2219 31.2046 57.4107 33.3662 58.5464 33.494C59.4896 33.6008 60.5792 33.4548 62.9265 33.4935L63.0349 32.5281C62.762 31.0156 60.9419 32.347 60.3279 30.5248C60.1742 28.8124 60.3174 27.9557 60.854 26.3716L61.0727 25.2795L60.6181 24.7322L57.0566 28.2659Z" fill="url(#paint4_linear_14_11434)"/>
<path fill-rule="evenodd" clip-rule="evenodd" d="M49.5533 20.3667C49.607 23.3888 48.9051 32.6328 50.6257 34.7015L50.9164 34.9923L55.5688 35.0106C55.5688 32.3923 52.833 33.8123 52.8977 31.8777C55.8107 28.9264 61.5478 25.5658 63.2741 22.8072C64.618 20.6578 59.8213 21.6775 59.8213 21.6775L55.4596 21.6051L49.5533 20.3667Z" fill="url(#paint5_linear_14_11434)"/>
<path fill-rule="evenodd" clip-rule="evenodd" d="M58.6524 11.6637C58.5939 11.2569 58.5359 10.8502 58.4777 10.4437C56.8498 8.65206 56.3327 8.91206 54.6857 7.54369C54.2165 7.15342 53.8242 6.67802 53.3938 6.24532L52.5002 5.10992L52.5835 4.08723L51.4756 3.07399C53.3499 0.733202 57.2343 0.687797 61.6584 0.927255C64.0714 -1.34192 64.347 1.07698 64.8167 2.60643C66.2169 4.18588 67.5964 6.09613 67.5894 8.25477L67.4055 9.22043L65.123 11.4912L62.464 12.2439L60.1759 12.2142L58.6524 11.6637Z" fill="url(#paint6_linear_14_11434)"/>
<path fill-rule="evenodd" clip-rule="evenodd" d="M65.4412 10.9577C64.4937 9.71336 64.0609 7.79905 62.3678 6.4869C59.1442 4.29692 55.4183 3.37395 51.5889 3.06152C51.5943 3.87827 51.8137 4.43178 52.3773 5.13313C53.2674 6.13528 54.5166 7.66257 55.6489 8.35445C55.9137 8.51635 57.2926 9.63282 57.2926 9.63282L58.5435 10.8358L58.6389 11.8925L63.6775 12.6333L65.4412 10.9577Z" fill="url(#paint7_linear_14_11434)"/>
<path fill-rule="evenodd" clip-rule="evenodd" d="M65.4409 10.9578C64.4934 9.71347 63.9706 8.087 62.278 6.7743C59.1049 4.61919 57.5409 4.57162 53.938 3.54784C49.0434 0.926782 52.1125 6.59728 54.364 8.89537C55.5189 10.0748 56.3246 10.4364 58.4534 11.1235L58.5478 12.1799L63.5871 12.921L65.4409 10.9578Z" fill="url(#paint8_linear_14_11434)"/>
<path fill-rule="evenodd" clip-rule="evenodd" d="M40.7406 6.10449C42.0004 6.17746 43.2602 6.25044 44.5202 6.32341C44.5202 6.32341 44.775 6.17746 46.7008 7.12448C51.6218 9.5442 59.2966 15.1644 65.2724 9.92987C66.3963 8.94528 67.0836 7.94583 67.3079 6.50557C67.3079 6.50557 68.7627 11.2777 67.4538 15.5398C66.145 19.8017 64.474 22.9165 60.0397 26.1951C59.0933 26.8946 58.1015 27.5305 57.1322 28.1978C55.6791 27.8827 54.2246 27.567 52.7715 27.2519C51.5234 26.9965 50.2757 26.7414 49.0281 26.4865C45.9774 25.407 43.1183 24.5403 40.1604 23.2073C39.4458 22.8436 38.7302 22.4795 38.0156 22.1152C38.4883 18.7876 38.9607 15.4609 39.4329 12.1339C39.3965 10.9315 39.3603 9.7296 39.3239 8.52745C39.7958 7.71989 40.2679 6.91205 40.7406 6.10449Z" fill="url(#paint9_linear_14_11434)"/>
<path fill-rule="evenodd" clip-rule="evenodd" d="M43.329 6.03261L40.4943 5.70504C35.8599 5.06748 29.7083 8.61907 27.0108 12.2985C23.4858 17.1071 25.8824 19.656 26.1385 25.7768C26.2631 28.7576 25.586 31.3938 26.7382 33.8278L27.2831 34.4475L31.7357 34.3562L31.681 33.3727L31.0266 32.9535L30.009 32.4251L29.3184 32.0424C29.3184 32.0424 28.9552 31.9881 28.9552 31.733C28.9552 30.7881 31.4006 28.7727 32.1715 28.4C34.9582 27.0519 36.9083 25.8862 39.0042 22.8263C39.0042 22.8263 39.9852 20.6044 40.4757 19.5479C40.9661 18.4912 41.2935 15.3769 40.93 13.7012C40.3201 10.8872 39.3874 8.64556 41.9476 6.78017L43.329 6.03261Z" fill="url(#paint10_linear_14_11434)"/>
<path fill-rule="evenodd" clip-rule="evenodd" d="M49.5186 20.5327L49.5914 32.8815C49.5914 32.8815 49.8284 34.7496 50.7179 34.9129C51.6075 35.0756 52.8618 34.9994 52.8618 34.9994C52.4989 34.4515 52.1352 33.9034 51.7722 33.3556C50.8091 31.108 52.3369 25.4786 55.6974 22.6273L56.4969 20.7692L55.5515 19.3487L54.0254 19.2397L52.0632 20.897L51.0089 20.8605L49.5186 20.5327Z" fill="url(#paint11_linear_14_11434)"/>
<path fill-rule="evenodd" clip-rule="evenodd" d="M49.5551 21.0594L49.6103 20.9497V26.778L45.79 25.3708L49.5551 21.0594Z" fill="url(#paint12_linear_14_11434)"/>
<path fill-rule="evenodd" clip-rule="evenodd" d="M49.3359 17.9248L49.4282 32.8817C49.4282 32.8817 49.7204 34.9568 50.658 34.9801C51.5955 35.0049 52.6986 34.9995 52.6986 34.9995C52.3357 34.4517 51.972 33.9036 51.6085 33.3558C50.9907 31.9639 51.3378 26.8631 54.9526 23.5923C56.0605 22.864 57.4053 19.5678 58.0413 18.5834L55.4428 18.7621L53.9161 18.6526L52.0992 18.2891L50.8257 18.2524L49.3359 17.9248Z" fill="url(#paint13_linear_14_11434)"/>
<path fill-rule="evenodd" clip-rule="evenodd" d="M43.7655 6.2793C43.3225 6.33686 42.8795 6.3947 42.4362 6.45254C41.971 6.61794 41.5067 6.78308 41.0416 6.94875C40.8803 7.1174 40.7196 7.28578 40.5584 7.45415C40.3526 7.8501 40.1474 8.24631 39.9417 8.64225C39.8813 9.03928 39.8217 9.4363 39.7621 9.83278C39.7481 10.3925 39.7346 10.9522 39.7217 11.512C39.8382 11.8395 39.9544 12.1668 40.0714 12.4941C40.0714 12.4941 43.0191 17.0746 49.3908 18.4519C55.7622 19.8289 61.3694 19.6232 63.1299 17.0752C64.8904 14.5265 65.0395 10.3487 65.0395 10.3487C65.0395 10.3487 64.2632 11.5425 60.8147 12.7122C56.412 14.2046 51.3341 10.756 47.8112 7.95928C46.2484 6.94118 45.3041 6.3447 43.7655 6.2793Z" fill="url(#paint14_linear_14_11434)"/>
<path fill-rule="evenodd" clip-rule="evenodd" d="M43.9354 6.02148C43.4921 6.07932 43.1214 6.36932 42.6784 6.42689C42.2135 6.59229 41.7489 6.75769 41.2838 6.9231C41.1228 7.09175 40.9618 7.26039 40.8006 7.4285C40.5951 7.82444 40.3896 8.22066 40.1839 8.6166C40.124 9.01362 40.0642 9.41038 40.0043 9.8074C39.9903 10.3669 39.9768 10.9269 39.9639 11.486C40.0804 11.8136 40.1974 12.1414 40.3136 12.4687C40.3136 12.4687 43.2608 17.0492 49.6332 18.4263C56.0052 19.803 61.4074 19.3746 63.1674 16.8263C64.9284 14.2779 65.2819 10.3231 65.2819 10.3231C65.2819 10.3231 64.6073 10.7831 61.1583 11.9528C56.7561 13.4455 51.5766 10.7304 48.0537 7.93363C46.4906 6.91607 45.4743 6.08689 43.9354 6.02148Z" fill="url(#paint15_linear_14_11434)"/>
<path fill-rule="evenodd" clip-rule="evenodd" d="M44.0415 6.02787C41.1321 5.77625 38.0733 4.85734 35.5068 6.91543C34.0739 9.24082 35.4939 12.7178 35.8342 15.3308C35.8342 15.3308 36.6334 18.7551 34.7801 20.9042C32.9266 23.0537 30.5646 26.8058 30.5646 26.8058C30.104 27.5585 29.6435 28.3112 29.1832 29.0639C28.7776 29.9993 28.535 30.8798 28.6744 31.9777C28.8685 32.7552 29.0621 33.5322 29.256 34.3093C30.4098 34.4449 31.1483 34.429 32.3089 34.3825C33.6458 33.3104 30.4402 31.9612 29.7643 31.759C30.1159 30.2663 30.3947 29.4644 32.2358 28.7001C39.0834 24.7996 42.6052 20.504 41.1035 12.3067C40.9336 11.214 40.5098 10.4308 40.595 9.02839C40.9358 7.23164 42.627 6.89273 44.0415 6.02787Z" fill="url(#paint16_linear_14_11434)"/>
<path fill-rule="evenodd" clip-rule="evenodd" d="M43.8958 6.0669C40.9861 5.81501 37.927 4.89664 35.3614 6.95473C33.9285 9.27984 35.3487 12.7571 35.6882 15.3695C35.6882 15.3695 36.4879 18.7933 34.6344 20.9427C32.7812 23.0922 30.4186 26.8448 30.4186 26.8448C29.958 27.597 29.498 28.3502 29.0374 29.1029C28.6316 30.0378 28.3895 30.9183 28.5289 32.0172C28.7225 32.7937 28.9166 33.5713 29.1105 34.3488C30.2635 34.4845 31.0023 34.4675 32.1629 34.4213C33.4998 33.3502 30.2948 32.001 29.6188 31.7989C29.9699 30.3045 30.2484 29.5037 32.0903 28.7383C38.9376 24.8395 42.4597 20.5422 40.9581 12.3463C40.7885 11.2533 40.3646 10.4701 40.4495 9.06741C40.7903 7.27067 42.4815 6.93203 43.8958 6.0669Z" fill="url(#paint17_linear_14_11434)"/>
<path fill-rule="evenodd" clip-rule="evenodd" d="M52.1157 4.30054L55.363 5.56809C54.5873 6.65592 53.0883 8.90266 51.4238 7.96754L52.1157 4.30054Z" fill="#F17C0C"/>
<path fill-rule="evenodd" clip-rule="evenodd" d="M1.01327 25.3444C4.20961 21.5833 12.4793 22.8095 16.6614 22.4822C19.4824 22.2617 22.6502 21.6239 24.8987 19.7896C22.8726 21.8763 19.4611 22.5541 16.694 22.8255C12.8411 23.2028 4.40375 22.1755 1.49566 25.6611C1.4083 25.7946 1.22953 25.8322 1.09632 25.7441C0.962849 25.6563 0.925639 25.4779 1.01327 25.3444Z" fill="#9F3D14"/>
<path fill-rule="evenodd" clip-rule="evenodd" d="M2.77474 26.8058C4.05715 24.4452 16.4825 25.0912 18.6885 24.6807C21.5707 24.1434 22.8739 23.2988 25.1753 21.6982C22.9149 23.5477 21.774 24.3644 18.7532 24.9969C16.9568 25.3733 4.33381 25.2444 3.31618 27.0055C3.26144 27.1555 3.09534 27.2325 2.94596 27.1777C2.79658 27.122 2.71946 26.9563 2.77474 26.8058Z" fill="#9F3D14"/>
<path fill-rule="evenodd" clip-rule="evenodd" d="M4.45965 28.6337C8.66392 27.5932 8.0281 27.4264 12.7808 27.3267C18.2656 27.211 20.9054 26.3602 25.6616 23.9219C21.1875 26.7116 18.1062 27.58 12.7625 27.78C8.07745 27.9567 8.70868 28.1194 4.55888 29.2037C4.40222 29.2313 4.25284 29.1262 4.22507 28.9683C4.19756 28.811 4.30299 28.6616 4.45965 28.6337Z" fill="#9F3D14"/>
<path fill-rule="evenodd" clip-rule="evenodd" d="M17.1668 22.0119C15.3985 24.3246 16.5162 25.9457 18.3616 27.5894C15.9046 26.1373 14.9606 24.1641 16.7395 21.6241C16.8465 21.5057 17.0291 21.4962 17.1472 21.6035C17.265 21.7111 17.2742 21.8941 17.1668 22.0119Z" fill="#9F3D14"/>
<path fill-rule="evenodd" clip-rule="evenodd" d="M23.1541 20.5328C22.5496 22.7571 23.2444 23.3401 24.6832 25.0044C22.7539 23.7001 22.1114 22.6806 22.6002 20.3688C22.6453 20.2155 22.806 20.1288 22.9586 20.1742C23.1115 20.2185 23.1991 20.3793 23.1541 20.5328Z" fill="#9F3D14"/>
<path fill-rule="evenodd" clip-rule="evenodd" d="M13.2107 22.0442C11.5818 24.5187 12.6491 27.0663 14.6692 28.8263C11.9639 27.4506 11.248 24.152 12.7833 21.6558C12.8904 21.5374 13.0729 21.529 13.191 21.6358C13.3089 21.7439 13.318 21.9258 13.2107 22.0442Z" fill="#9F3D14"/>
<path fill-rule="evenodd" clip-rule="evenodd" d="M9.39901 22.2036C7.64714 25.1481 8.76292 26.9825 10.5525 29.4016C8.14598 27.173 7.25077 24.9322 8.92309 21.8774C9.01288 21.7449 9.19273 21.7111 9.32432 21.8019C9.45509 21.8917 9.48907 22.0717 9.39901 22.2036Z" fill="#9F3D14"/>
<path fill-rule="evenodd" clip-rule="evenodd" d="M5.40198 22.8956C4.09853 26.4145 4.29429 27.3945 7.48658 29.6923C3.81217 27.7912 3.69164 26.2583 4.85352 22.7359C4.90314 22.6013 5.066 22.5278 5.21754 22.5724C5.36908 22.6164 5.45159 22.761 5.40198 22.8956Z" fill="#9F3D14"/>
<path fill-rule="evenodd" clip-rule="evenodd" d="M20.3317 21.5251C19.5834 24.0761 20.213 24.2151 21.5141 26.5678C19.6158 24.2234 19.1178 24.2072 19.7803 21.4405C19.8204 21.3043 19.9768 21.2124 20.1292 21.2362C20.2813 21.2591 20.3719 21.3894 20.3317 21.5251Z" fill="#9F3D14"/>
</g>
<defs>
<linearGradient id="paint0_linear_14_11434" x1="0.144077" y1="23.3421" x2="26.9511" y2="23.3421" gradientUnits="userSpaceOnUse">
<stop stop-color="#D55C2D"/>
<stop offset="0.44" stop-color="#F9A350"/>
<stop offset="1" stop-color="#D15C32"/>
</linearGradient>
<linearGradient id="paint1_linear_14_11434" x1="0.223525" y1="23.0066" x2="26.9516" y2="23.0066" gradientUnits="userSpaceOnUse">
<stop stop-color="#CA621D"/>
<stop offset="0.45" stop-color="#F0861E"/>
<stop offset="1" stop-color="#962215"/>
</linearGradient>
<linearGradient id="paint2_linear_14_11434" x1="-6.7082e-05" y1="28.899" x2="27.5041" y2="28.899" gradientUnits="userSpaceOnUse">
<stop stop-color="#AC4A18"/>
<stop offset="1" stop-color="#BE281D"/>
</linearGradient>
<linearGradient id="paint3_linear_14_11434" x1="31.7891" y1="26.9916" x2="41.7701" y2="26.9916" gradientUnits="userSpaceOnUse">
<stop stop-color="#89090C"/>
<stop offset="1" stop-color="#982318"/>
</linearGradient>
<linearGradient id="paint4_linear_14_11434" x1="57.0565" y1="29.1328" x2="63.035" y2="29.1328" gradientUnits="userSpaceOnUse">
<stop stop-color="#89090C"/>
<stop offset="1" stop-color="#982318"/>
</linearGradient>
<linearGradient id="paint5_linear_14_11434" x1="50.2215" y1="28.5098" x2="62.3658" y2="24.2674" gradientUnits="userSpaceOnUse">
<stop stop-color="#E46D20"/>
<stop offset="1" stop-color="#FFD118"/>
</linearGradient>
<linearGradient id="paint6_linear_14_11434" x1="51.8027" y1="4.20099" x2="67.1017" y2="7.11269" gradientUnits="userSpaceOnUse">
<stop stop-color="#F78E1E"/>
<stop offset="0.43" stop-color="#EC7A1F"/>
<stop offset="1" stop-color="#9F3F14"/>
</linearGradient>
<linearGradient id="paint7_linear_14_11434" x1="50.919" y1="6.58085" x2="65.4351" y2="9.34352" gradientUnits="userSpaceOnUse">
<stop stop-color="#F78E1E"/>
<stop offset="0.53" stop-color="#F79758"/>
<stop offset="1" stop-color="#9F3D14"/>
</linearGradient>
<linearGradient id="paint8_linear_14_11434" x1="50.8274" y1="6.65987" x2="65.3701" y2="9.42763" gradientUnits="userSpaceOnUse">
<stop stop-color="#F78E1E"/>
<stop offset="0.42" stop-color="#F47721"/>
<stop offset="1" stop-color="#8E300E"/>
</linearGradient>
<linearGradient id="paint9_linear_14_11434" x1="38.0156" y1="17.1513" x2="68" y2="17.1513" gradientUnits="userSpaceOnUse">
<stop stop-color="#A13C15"/>
<stop offset="0.5" stop-color="#EF821E"/>
<stop offset="1" stop-color="#FFD615"/>
</linearGradient>
<linearGradient id="paint10_linear_14_11434" x1="25.7443" y1="27.2718" x2="41.4427" y2="10.0767" gradientUnits="userSpaceOnUse">
<stop stop-color="#EF4435"/>
<stop offset="0.44" stop-color="#F78D1E"/>
<stop offset="1" stop-color="#EC7E1E"/>
</linearGradient>
<linearGradient id="paint11_linear_14_11434" x1="48.962" y1="32.8598" x2="54.5258" y2="20.2011" gradientUnits="userSpaceOnUse">
<stop stop-color="#DB771E"/>
<stop offset="0.5" stop-color="#F2CDAB"/>
<stop offset="1" stop-color="#F3A21C"/>
</linearGradient>
<linearGradient id="paint12_linear_14_11434" x1="47.7166" y1="26.0241" x2="50.5434" y2="22.8148" gradientUnits="userSpaceOnUse">
<stop stop-color="#C35F1C"/>
<stop offset="0.484" stop-color="#C05C1C"/>
<stop offset="0.8515" stop-color="#B8521A"/>
<stop offset="1" stop-color="#B34C19"/>
</linearGradient>
<linearGradient id="paint13_linear_14_11434" x1="49.3359" y1="26.4625" x2="58.0413" y2="26.4625" gradientUnits="userSpaceOnUse">
<stop stop-color="#D46D1E"/>
<stop offset="1" stop-color="#F39E1C"/>
</linearGradient>
<linearGradient id="paint14_linear_14_11434" x1="39.9178" y1="11.9198" x2="63.9633" y2="14.0704" gradientUnits="userSpaceOnUse">
<stop stop-color="#7E3007"/>
<stop offset="0.5" stop-color="#FFEBC1"/>
<stop offset="1" stop-color="#FFCB16"/>
</linearGradient>
<linearGradient id="paint15_linear_14_11434" x1="40.191" y1="11.7699" x2="64.2008" y2="13.9173" gradientUnits="userSpaceOnUse">
<stop stop-color="#A34515"/>
<stop offset="0.47" stop-color="#EC7A1F"/>
<stop offset="1" stop-color="#F7B619"/>
</linearGradient>
<linearGradient id="paint16_linear_14_11434" x1="32.2788" y1="33.1468" x2="40.0514" y2="6.90366" gradientUnits="userSpaceOnUse">
<stop stop-color="#F05123"/>
<stop offset="0.63" stop-color="#F6D41B"/>
<stop offset="1" stop-color="#F2841F"/>
</linearGradient>
<linearGradient id="paint17_linear_14_11434" x1="32.1331" y1="33.1865" x2="39.9058" y2="6.94293" gradientUnits="userSpaceOnUse">
<stop stop-color="#F05123"/>
<stop offset="0.63" stop-color="#F6D41B"/>
<stop offset="1" stop-color="#F2841F"/>
</linearGradient>
<clipPath id="clip0_14_11434">
<rect width="68" height="35" fill="white"/>
</clipPath>
</defs>
</svg>
