<svg width="46" height="43" viewBox="0 0 46 43" fill="none" xmlns="http://www.w3.org/2000/svg">
<path d="M45.5145 36.0432L36.3665 27.5708L42.8929 24.0797C43.4029 23.8069 43.6996 23.2884 43.6572 22.7445C43.6148 22.2003 43.2405 21.7266 42.6936 21.5246L13.5912 10.7733C13.0207 10.5623 12.3692 10.6866 11.9348 11.0888C11.5003 11.4913 11.3661 12.0945 11.5938 12.6228L23.201 39.5782C23.4192 40.0848 23.9307 40.4315 24.5182 40.4708C25.1058 40.5104 25.6657 40.2355 25.9601 39.763L29.7295 33.7188L38.8768 42.1912C39.165 42.4582 39.5563 42.6083 39.9638 42.6083C40.3716 42.6083 40.7626 42.4582 41.0508 42.1912L45.5146 38.0566C46.1148 37.5005 46.1148 36.5992 45.5145 36.0432Z" fill="white"/>
<path d="M6.74732 4.27221C6.14696 3.71663 5.17389 3.71648 4.57321 4.27221C3.97299 4.82822 3.97299 5.72969 4.57321 6.2857L7.98893 9.44906C8.28903 9.72699 8.68231 9.86603 9.07591 9.86603C9.46919 9.86603 9.86262 9.72699 10.1627 9.44906C10.7631 8.89304 10.7631 7.99173 10.1627 7.43571L6.74732 4.27221Z" fill="white"/>
<path d="M7.90526 14.1151C7.90526 13.329 7.21698 12.6914 6.36788 12.6914H1.53737C0.688437 12.6914 0 13.3288 0 14.1151C0 14.9013 0.688282 15.5388 1.53737 15.5388H6.36788C7.21698 15.5387 7.90526 14.9013 7.90526 14.1151Z" fill="white"/>
<path d="M7.28236 18.5085L3.86618 21.6722C3.26596 22.2282 3.26596 23.1297 3.86618 23.6855C4.16644 23.9635 4.55988 24.1025 4.95316 24.1025C5.34644 24.1025 5.74003 23.9635 6.04014 23.6855L9.45616 20.522C10.0565 19.966 10.0565 19.0646 9.45616 18.5085C8.85595 17.953 7.88304 17.9528 7.28236 18.5085Z" fill="white"/>
<path d="M15.1993 7.3586C16.0483 7.3586 16.7367 6.72117 16.7367 5.93481V1.46076C16.7367 0.67454 16.0484 0.0371094 15.1993 0.0371094C14.3505 0.0371094 13.6621 0.674397 13.6621 1.46076V5.93495C13.6621 6.72117 14.3504 7.3586 15.1993 7.3586Z" fill="white"/>
<path d="M21.0314 9.21179C21.425 9.21179 21.8183 9.07275 22.1184 8.79481L25.5339 5.63146C26.1343 5.07544 26.1343 4.17398 25.5339 3.61797C24.9336 3.06224 23.9602 3.06224 23.36 3.61797L19.9444 6.78147C19.344 7.33748 19.344 8.23894 19.9444 8.79481C20.2447 9.07275 20.638 9.21179 21.0314 9.21179Z" fill="white"/>
</svg>
