<svg width="22" height="22" viewBox="0 0 22 22" fill="none" xmlns="http://www.w3.org/2000/svg">
<g opacity="0.2">
<path fill-rule="evenodd" clip-rule="evenodd" d="M6.06627 4.4452C6.70251 4.4452 7.21888 3.95576 7.21888 3.3527V1.1677C7.21888 0.564635 6.70251 0.0751953 6.06627 0.0751953C5.43003 0.0751953 4.91366 0.564635 4.91366 1.1677V3.3527C4.91366 3.95576 5.43003 4.4452 6.06627 4.4452ZM10.4577 15.8771L8.36573 17.7158C8.00266 18.0599 7.21888 17.8163 7.21888 17.3291V11.7179C7.21888 11.1138 6.70251 10.6254 6.06627 10.6254C5.43003 10.6254 4.91366 11.1138 4.91366 11.7179V17.3269C4.91366 17.8141 4.45609 18.0578 4.09302 17.7136L2.18661 15.8771C1.73709 15.4499 1.07321 15.4499 0.622542 15.8771C0.171875 16.3032 0.205281 16.9959 0.655949 17.423L4.3385 20.8972L4.75806 21.2861C5.65824 22.1382 7.12436 22.1382 8.02339 21.2861L12.1082 17.4219C12.5589 16.9958 12.5716 16.3043 12.1221 15.8771C11.6714 15.451 10.9083 15.451 10.4577 15.8771ZM20.8138 9.20848L16.3106 11.5639C15.8576 11.86 15.2456 11.7988 14.8572 11.4306C14.357 10.9565 14.4284 10.1513 15.007 9.76567L16.3821 8.8152H6.59072C5.95448 8.8152 5.4335 8.36292 5.4335 7.75877C5.4335 6.98309 6.17461 6.70228 6.58148 6.70228L12.386 6.69468L12.8274 1.97727C13.1951 0.931746 14.2302 0.31011 15.3701 0.526425L19.4595 0.889102C20.5372 1.0934 21.0501 1.99034 21.0501 3.03149V8.31376C21.0501 8.67319 21.1262 9.00527 20.8138 9.20848Z" fill="#171711"/>
</g>
</svg>
