<svg width="20" height="13" viewBox="0 0 20 13" fill="none" xmlns="http://www.w3.org/2000/svg">
<path d="M10.9679 12.0318C11.4754 12.0318 11.6828 11.6838 11.677 11.2475C11.6512 9.60441 12.272 8.71985 13.3928 9.8727C14.6327 11.1481 14.8894 12.0318 16.3951 12.0318H19.0617C19.735 12.0318 20 11.809 20 11.4592C20 10.7195 18.8159 9.41413 17.8126 8.45586C16.4076 7.11445 16.3418 7.08273 17.5518 5.4679C19.0525 3.46306 21.0158 0.894241 19.2792 0.894241H15.9618C15.3185 0.894241 15.2719 1.26709 15.0427 1.82251C14.2136 3.8342 12.6378 6.43988 12.0395 6.04132C11.4137 5.62561 11.7003 3.97906 11.7478 1.53195C11.7603 0.88567 11.757 0.442533 10.7971 0.212821C10.2729 0.0885372 9.76293 0.0371094 9.28961 0.0371094C7.39552 0.0371094 6.08891 0.853956 6.83138 0.99624C8.14049 1.24738 8.01467 4.16077 7.70968 5.41904C7.17803 7.60987 5.17978 3.6842 4.34732 1.72909C4.14649 1.25938 4.08483 0.894241 3.36819 0.894241H0.655806C0.245823 0.894241 0 1.03138 0 1.33652C0 1.85251 2.46656 7.09645 4.82147 9.7107C7.11804 12.2607 9.38794 12.0318 10.9679 12.0318Z" fill="white"/>
</svg>
